<?xml version="1.0" standalone="no"?><!-- Generator: Gravit.io --><svg xmlns="http://www.w3.org/2000/svg" xmlns:xlink="http://www.w3.org/1999/xlink" style="isolation:isolate" viewBox="0 0 140 31" width="140" height="31"><defs><clipPath id="_clipPath_wLxaPDDPDFFKUfbsZco6iwzkgc1NCFSj"><rect width="140" height="31"/></clipPath></defs><g clip-path="url(#_clipPath_wLxaPDDPDFFKUfbsZco6iwzkgc1NCFSj)"><g id="Group"><g id="home-button"><g id="Group"><path d=" M 25.028 14.515 L 16.372 7.522 L 15.891 7.123 C 15.71 6.973 15.447 6.973 15.266 7.123 L 12.768 9.198 L 12.768 8.32 C 12.768 8.05 12.549 7.831 12.279 7.831 L 10.413 7.831 C 10.142 7.831 9.923 8.05 9.923 8.32 L 9.923 11.552 L 6.127 14.648 C 5.918 14.819 5.887 15.128 6.058 15.337 C 6.154 15.456 6.295 15.517 6.437 15.517 C 6.546 15.517 6.655 15.481 6.746 15.407 L 8.227 14.199 L 8.227 22.303 C 8.227 22.573 8.446 22.792 8.717 22.792 L 13.947 22.792 C 14.218 22.792 14.437 22.573 14.437 22.303 L 14.437 18.505 L 16.721 18.505 L 16.721 22.303 C 16.721 22.573 16.94 22.792 17.21 22.792 L 22.441 22.792 C 22.711 22.792 22.93 22.573 22.93 22.303 L 22.93 14.079 L 24.413 15.276 C 24.503 15.349 24.612 15.385 24.72 15.385 C 24.863 15.385 25.005 15.323 25.101 15.203 C 25.271 14.993 25.238 14.684 25.028 14.515 Z  M 10.902 8.81 L 11.789 8.81 L 11.789 9.977 L 10.902 10.695 L 10.902 8.81 Z  M 21.951 13.428 L 21.951 21.813 L 17.7 21.813 L 17.7 18.015 C 17.7 17.745 17.481 17.526 17.21 17.526 L 13.947 17.526 C 13.677 17.526 13.458 17.745 13.458 18.015 L 13.458 21.813 L 9.206 21.813 L 9.206 13.428 L 11.109 11.848 C 11.109 11.848 15.565 8.197 15.593 8.148 L 21.951 13.428 Z " fill="rgb(0,213,99)" vector-effect="non-scaling-stroke" stroke-width="0.228" stroke="rgb(0,213,99)" stroke-linejoin="miter" stroke-linecap="square" stroke-miterlimit="3"/></g></g><path d=" M 1.344 15.471 C 1.344 7.614 7.722 1.236 15.579 1.236 C 23.435 1.236 29.814 7.614 29.814 15.471 C 29.814 23.327 23.435 29.705 15.579 29.705 C 7.722 29.705 1.344 23.327 1.344 15.471 Z " fill="none" vector-effect="non-scaling-stroke" stroke-width="1.708" stroke="rgb(0,213,99)" stroke-linejoin="miter" stroke-linecap="square" stroke-miterlimit="3"/><path d=" M 95.026 22.148 L 93.215 22.148 L 93.215 22.148 Q 92.925 21.379 92.669 20.636 L 92.669 20.636 L 92.669 20.636 Q 92.413 19.893 92.139 19.125 L 92.139 19.125 L 86.776 19.125 L 85.699 22.148 L 83.974 22.148 L 83.974 22.148 Q 84.657 20.269 85.255 18.672 L 85.255 18.672 L 85.255 18.672 Q 85.853 17.075 86.425 15.64 L 86.425 15.64 L 86.425 15.64 Q 86.998 14.205 87.561 12.898 L 87.561 12.898 L 87.561 12.898 Q 88.125 11.592 88.74 10.31 L 88.74 10.31 L 90.26 10.31 L 90.26 10.31 Q 90.875 11.592 91.439 12.898 L 91.439 12.898 L 91.439 12.898 Q 92.003 14.205 92.575 15.64 L 92.575 15.64 L 92.575 15.64 Q 93.147 17.075 93.745 18.672 L 93.745 18.672 L 93.745 18.672 Q 94.343 20.269 95.026 22.148 L 95.026 22.148 L 95.026 22.148 Z  M 87.254 17.758 L 91.661 17.758 L 91.661 17.758 Q 91.114 16.272 90.576 14.88 L 90.576 14.88 L 90.576 14.88 Q 90.038 13.488 89.457 12.206 L 89.457 12.206 L 89.457 12.206 Q 88.86 13.488 88.321 14.88 L 88.321 14.88 L 88.321 14.88 Q 87.783 16.272 87.254 17.758 L 87.254 17.758 L 87.254 17.758 Z  M 99.809 13.078 L 99.809 13.078 L 99.809 13.078 Q 100.014 13.078 100.279 13.103 L 100.279 13.103 L 100.279 13.103 Q 100.543 13.129 100.8 13.172 L 100.8 13.172 L 100.8 13.172 Q 101.056 13.214 101.269 13.257 L 101.269 13.257 L 101.269 13.257 Q 101.483 13.3 101.585 13.334 L 101.585 13.334 L 101.312 14.718 L 101.312 14.718 Q 101.124 14.649 100.689 14.555 L 100.689 14.555 L 100.689 14.555 Q 100.253 14.461 99.57 14.461 L 99.57 14.461 L 99.57 14.461 Q 99.126 14.461 98.69 14.555 L 98.69 14.555 L 98.69 14.555 Q 98.255 14.649 98.118 14.683 L 98.118 14.683 L 98.118 22.148 L 96.529 22.148 L 96.529 13.641 L 96.529 13.641 Q 97.093 13.436 97.93 13.257 L 97.93 13.257 L 97.93 13.257 Q 98.767 13.078 99.809 13.078 Z  M 105.19 21.004 L 105.19 21.004 L 105.19 21.004 Q 106.163 21.004 106.633 20.747 L 106.633 20.747 L 106.633 20.747 Q 107.103 20.491 107.103 19.927 L 107.103 19.927 L 107.103 19.927 Q 107.103 19.347 106.642 19.005 L 106.642 19.005 L 106.642 19.005 Q 106.18 18.663 105.121 18.236 L 105.121 18.236 L 105.121 18.236 Q 104.609 18.031 104.139 17.818 L 104.139 17.818 L 104.139 17.818 Q 103.669 17.604 103.328 17.314 L 103.328 17.314 L 103.328 17.314 Q 102.986 17.024 102.781 16.614 L 102.781 16.614 L 102.781 16.614 Q 102.576 16.204 102.576 15.606 L 102.576 15.606 L 102.576 15.606 Q 102.576 14.427 103.447 13.735 L 103.447 13.735 L 103.447 13.735 Q 104.319 13.043 105.822 13.043 L 105.822 13.043 L 105.822 13.043 Q 106.198 13.043 106.573 13.086 L 106.573 13.086 L 106.573 13.086 Q 106.949 13.129 107.274 13.189 L 107.274 13.189 L 107.274 13.189 Q 107.598 13.248 107.846 13.317 L 107.846 13.317 L 107.846 13.317 Q 108.094 13.385 108.23 13.436 L 108.23 13.436 L 107.94 14.803 L 107.94 14.803 Q 107.684 14.666 107.137 14.521 L 107.137 14.521 L 107.137 14.521 Q 106.59 14.376 105.822 14.376 L 105.822 14.376 L 105.822 14.376 Q 105.156 14.376 104.66 14.641 L 104.66 14.641 L 104.66 14.641 Q 104.165 14.905 104.165 15.469 L 104.165 15.469 L 104.165 15.469 Q 104.165 15.759 104.276 15.982 L 104.276 15.982 L 104.276 15.982 Q 104.387 16.204 104.617 16.383 L 104.617 16.383 L 104.617 16.383 Q 104.848 16.562 105.19 16.716 L 105.19 16.716 L 105.19 16.716 Q 105.531 16.87 106.01 17.041 L 106.01 17.041 L 106.01 17.041 Q 106.642 17.28 107.137 17.51 L 107.137 17.51 L 107.137 17.51 Q 107.632 17.741 107.983 18.048 L 107.983 18.048 L 107.983 18.048 Q 108.333 18.356 108.521 18.792 L 108.521 18.792 L 108.521 18.792 Q 108.709 19.227 108.709 19.859 L 108.709 19.859 L 108.709 19.859 Q 108.709 21.089 107.795 21.721 L 107.795 21.721 L 107.795 21.721 Q 106.881 22.353 105.19 22.353 L 105.19 22.353 L 105.19 22.353 Q 104.011 22.353 103.345 22.157 L 103.345 22.157 L 103.345 22.157 Q 102.679 21.96 102.44 21.858 L 102.44 21.858 L 102.73 20.491 L 102.73 20.491 Q 103.003 20.594 103.601 20.799 L 103.601 20.799 L 103.601 20.799 Q 104.199 21.004 105.19 21.004 Z  M 112.33 13.266 L 112.33 22.148 L 110.741 22.148 L 110.741 13.266 L 112.33 13.266 L 112.33 13.266 Z  M 111.527 11.66 L 111.527 11.66 L 111.527 11.66 Q 111.1 11.66 110.801 11.378 L 110.801 11.378 L 110.801 11.378 Q 110.502 11.096 110.502 10.618 L 110.502 10.618 L 110.502 10.618 Q 110.502 10.14 110.801 9.858 L 110.801 9.858 L 110.801 9.858 Q 111.1 9.576 111.527 9.576 L 111.527 9.576 L 111.527 9.576 Q 111.954 9.576 112.253 9.858 L 112.253 9.858 L 112.253 9.858 Q 112.552 10.14 112.552 10.618 L 112.552 10.618 L 112.552 10.618 Q 112.552 11.096 112.253 11.378 L 112.253 11.378 L 112.253 11.378 Q 111.954 11.66 111.527 11.66 Z  M 116.549 10.515 L 116.549 13.266 L 119.914 13.266 L 119.914 14.598 L 116.549 14.598 L 116.549 18.698 L 116.549 18.698 Q 116.549 19.364 116.652 19.799 L 116.652 19.799 L 116.652 19.799 Q 116.754 20.235 116.959 20.483 L 116.959 20.483 L 116.959 20.483 Q 117.164 20.73 117.472 20.833 L 117.472 20.833 L 117.472 20.833 Q 117.779 20.935 118.189 20.935 L 118.189 20.935 L 118.189 20.935 Q 118.906 20.935 119.342 20.773 L 119.342 20.773 L 119.342 20.773 Q 119.778 20.611 119.948 20.542 L 119.948 20.542 L 120.256 21.858 L 120.256 21.858 Q 120.017 21.977 119.419 22.157 L 119.419 22.157 L 119.419 22.157 Q 118.821 22.336 118.052 22.336 L 118.052 22.336 L 118.052 22.336 Q 117.147 22.336 116.558 22.105 L 116.558 22.105 L 116.558 22.105 Q 115.968 21.875 115.61 21.414 L 115.61 21.414 L 115.61 21.414 Q 115.251 20.952 115.106 20.278 L 115.106 20.278 L 115.106 20.278 Q 114.961 19.603 114.961 18.715 L 114.961 18.715 L 114.961 10.789 L 116.549 10.515 L 116.549 10.515 Z  M 121.435 17.724 L 121.435 17.724 L 121.435 17.724 Q 121.435 16.545 121.776 15.666 L 121.776 15.666 L 121.776 15.666 Q 122.118 14.786 122.681 14.205 L 122.681 14.205 L 122.681 14.205 Q 123.245 13.624 123.98 13.334 L 123.98 13.334 L 123.98 13.334 Q 124.714 13.043 125.483 13.043 L 125.483 13.043 L 125.483 13.043 Q 127.276 13.043 128.233 14.162 L 128.233 14.162 L 128.233 14.162 Q 129.19 15.281 129.19 17.57 L 129.19 17.57 L 129.19 17.57 Q 129.19 17.673 129.19 17.835 L 129.19 17.835 L 129.19 17.835 Q 129.19 17.997 129.173 18.134 L 129.173 18.134 L 123.091 18.134 L 123.091 18.134 Q 123.194 19.517 123.894 20.235 L 123.894 20.235 L 123.894 20.235 Q 124.595 20.952 126.081 20.952 L 126.081 20.952 L 126.081 20.952 Q 126.918 20.952 127.49 20.807 L 127.49 20.807 L 127.49 20.807 Q 128.062 20.662 128.353 20.525 L 128.353 20.525 L 128.575 21.858 L 128.575 21.858 Q 128.284 22.011 127.558 22.182 L 127.558 22.182 L 127.558 22.182 Q 126.832 22.353 125.91 22.353 L 125.91 22.353 L 125.91 22.353 Q 124.748 22.353 123.903 22.003 L 123.903 22.003 L 123.903 22.003 Q 123.057 21.653 122.511 21.038 L 122.511 21.038 L 122.511 21.038 Q 121.964 20.423 121.699 19.577 L 121.699 19.577 L 121.699 19.577 Q 121.435 18.732 121.435 17.724 Z  M 123.126 16.853 L 127.533 16.853 L 127.533 16.853 Q 127.55 15.777 126.995 15.085 L 126.995 15.085 L 126.995 15.085 Q 126.439 14.393 125.466 14.393 L 125.466 14.393 L 125.466 14.393 Q 124.919 14.393 124.501 14.606 L 124.501 14.606 L 124.501 14.606 Q 124.082 14.82 123.792 15.162 L 123.792 15.162 L 123.792 15.162 Q 123.501 15.503 123.339 15.947 L 123.339 15.947 L 123.339 15.947 Q 123.177 16.392 123.126 16.853 L 123.126 16.853 L 123.126 16.853 Z  M 134.69 17.263 L 134.69 17.263 L 134.69 17.263 Q 135.202 17.656 135.775 18.236 L 135.775 18.236 L 135.775 18.236 Q 136.347 18.817 136.902 19.492 L 136.902 19.492 L 136.902 19.492 Q 137.457 20.167 137.953 20.858 L 137.953 20.858 L 137.953 20.858 Q 138.448 21.55 138.79 22.148 L 138.79 22.148 L 136.928 22.148 L 136.928 22.148 Q 136.569 21.55 136.099 20.927 L 136.099 20.927 L 136.099 20.927 Q 135.629 20.303 135.117 19.731 L 135.117 19.731 L 135.117 19.731 Q 134.605 19.159 134.075 18.68 L 134.075 18.68 L 134.075 18.68 Q 133.545 18.202 133.067 17.878 L 133.067 17.878 L 133.067 22.148 L 131.479 22.148 L 131.479 9.166 L 133.067 8.893 L 133.067 16.989 L 133.067 16.989 Q 133.477 16.579 133.973 16.084 L 133.973 16.084 L 133.973 16.084 Q 134.468 15.589 134.946 15.076 L 134.946 15.076 L 134.946 15.076 Q 135.424 14.564 135.852 14.094 L 135.852 14.094 L 135.852 14.094 Q 136.279 13.624 136.586 13.266 L 136.586 13.266 L 138.448 13.266 L 138.448 13.266 Q 138.055 13.693 137.594 14.205 L 137.594 14.205 L 137.594 14.205 Q 137.133 14.718 136.637 15.238 L 136.637 15.238 L 136.637 15.238 Q 136.142 15.759 135.638 16.28 L 135.638 16.28 L 135.638 16.28 Q 135.134 16.801 134.69 17.263 Z  M 43.063 20.73 L 43.063 16.323 L 44.72 16.323 L 44.72 21.858 L 44.72 21.858 Q 44.515 21.926 44.131 22.011 L 44.131 22.011 L 44.131 22.011 Q 43.747 22.097 43.243 22.182 L 43.243 22.182 L 43.243 22.182 Q 42.739 22.268 42.141 22.327 L 42.141 22.327 L 42.141 22.327 Q 41.543 22.387 40.928 22.387 L 40.928 22.387 L 40.928 22.387 Q 39.681 22.387 38.656 21.977 L 38.656 21.977 L 38.656 21.977 Q 37.631 21.567 36.897 20.782 L 36.897 20.782 L 36.897 20.782 Q 36.162 19.996 35.761 18.851 L 35.761 18.851 L 35.761 18.851 Q 35.359 17.707 35.359 16.221 L 35.359 16.221 L 35.359 16.221 Q 35.359 14.735 35.812 13.582 L 35.812 13.582 L 35.812 13.582 Q 36.265 12.429 37.033 11.643 L 37.033 11.643 L 37.033 11.643 Q 37.802 10.857 38.836 10.447 L 38.836 10.447 L 38.836 10.447 Q 39.869 10.037 41.048 10.037 L 41.048 10.037 L 41.048 10.037 Q 41.85 10.037 42.474 10.14 L 42.474 10.14 L 42.474 10.14 Q 43.097 10.242 43.542 10.379 L 43.542 10.379 L 43.542 10.379 Q 43.986 10.515 44.268 10.652 L 44.268 10.652 L 44.268 10.652 Q 44.549 10.789 44.652 10.857 L 44.652 10.857 L 44.122 12.241 L 44.122 12.241 Q 43.627 11.916 42.807 11.703 L 42.807 11.703 L 42.807 11.703 Q 41.987 11.489 41.133 11.489 L 41.133 11.489 L 41.133 11.489 Q 40.228 11.489 39.485 11.814 L 39.485 11.814 L 39.485 11.814 Q 38.742 12.138 38.221 12.753 L 38.221 12.753 L 38.221 12.753 Q 37.7 13.368 37.409 14.248 L 37.409 14.248 L 37.409 14.248 Q 37.119 15.127 37.119 16.221 L 37.119 16.221 L 37.119 16.221 Q 37.119 17.28 37.366 18.151 L 37.366 18.151 L 37.366 18.151 Q 37.614 19.022 38.118 19.646 L 38.118 19.646 L 38.118 19.646 Q 38.622 20.269 39.365 20.611 L 39.365 20.611 L 39.365 20.611 Q 40.108 20.952 41.116 20.952 L 41.116 20.952 L 41.116 20.952 Q 41.833 20.952 42.337 20.875 L 42.337 20.875 L 42.337 20.875 Q 42.841 20.799 43.063 20.73 L 43.063 20.73 L 43.063 20.73 Z  M 50.221 21.004 L 50.221 21.004 L 50.221 21.004 Q 50.784 21.004 51.22 20.978 L 51.22 20.978 L 51.22 20.978 Q 51.655 20.952 51.946 20.884 L 51.946 20.884 L 51.946 18.236 L 51.946 18.236 Q 51.775 18.151 51.391 18.091 L 51.391 18.091 L 51.391 18.091 Q 51.006 18.031 50.46 18.031 L 50.46 18.031 L 50.46 18.031 Q 50.101 18.031 49.7 18.083 L 49.7 18.083 L 49.7 18.083 Q 49.298 18.134 48.965 18.296 L 48.965 18.296 L 48.965 18.296 Q 48.632 18.458 48.41 18.74 L 48.41 18.74 L 48.41 18.74 Q 48.188 19.022 48.188 19.483 L 48.188 19.483 L 48.188 19.483 Q 48.188 20.337 48.734 20.671 L 48.734 20.671 L 48.734 20.671 Q 49.281 21.004 50.221 21.004 Z  M 50.084 13.043 L 50.084 13.043 L 50.084 13.043 Q 51.04 13.043 51.698 13.291 L 51.698 13.291 L 51.698 13.291 Q 52.356 13.539 52.757 13.992 L 52.757 13.992 L 52.757 13.992 Q 53.159 14.444 53.329 15.068 L 53.329 15.068 L 53.329 15.068 Q 53.5 15.691 53.5 16.443 L 53.5 16.443 L 53.5 21.994 L 53.5 21.994 Q 53.295 22.029 52.928 22.088 L 52.928 22.088 L 52.928 22.088 Q 52.561 22.148 52.1 22.199 L 52.1 22.199 L 52.1 22.199 Q 51.638 22.251 51.1 22.293 L 51.1 22.293 L 51.1 22.293 Q 50.562 22.336 50.033 22.336 L 50.033 22.336 L 50.033 22.336 Q 49.281 22.336 48.649 22.182 L 48.649 22.182 L 48.649 22.182 Q 48.017 22.029 47.556 21.695 L 47.556 21.695 L 47.556 21.695 Q 47.095 21.362 46.838 20.816 L 46.838 20.816 L 46.838 20.816 Q 46.582 20.269 46.582 19.5 L 46.582 19.5 L 46.582 19.5 Q 46.582 18.766 46.881 18.236 L 46.881 18.236 L 46.881 18.236 Q 47.18 17.707 47.692 17.382 L 47.692 17.382 L 47.692 17.382 Q 48.205 17.058 48.888 16.904 L 48.888 16.904 L 48.888 16.904 Q 49.571 16.75 50.323 16.75 L 50.323 16.75 L 50.323 16.75 Q 50.562 16.75 50.818 16.776 L 50.818 16.776 L 50.818 16.776 Q 51.075 16.801 51.305 16.844 L 51.305 16.844 L 51.305 16.844 Q 51.536 16.887 51.707 16.921 L 51.707 16.921 L 51.707 16.921 Q 51.877 16.955 51.946 16.972 L 51.946 16.972 L 51.946 16.528 L 51.946 16.528 Q 51.946 16.135 51.86 15.751 L 51.86 15.751 L 51.86 15.751 Q 51.775 15.367 51.553 15.068 L 51.553 15.068 L 51.553 15.068 Q 51.331 14.769 50.947 14.589 L 50.947 14.589 L 50.947 14.589 Q 50.562 14.41 49.947 14.41 L 49.947 14.41 L 49.947 14.41 Q 49.161 14.41 48.572 14.521 L 48.572 14.521 L 48.572 14.521 Q 47.983 14.632 47.692 14.752 L 47.692 14.752 L 47.505 13.436 L 47.505 13.436 Q 47.812 13.3 48.529 13.172 L 48.529 13.172 L 48.529 13.172 Q 49.247 13.043 50.084 13.043 Z  M 59.018 20.987 L 58.796 22.319 L 58.796 22.319 Q 57.327 22.285 56.712 21.687 L 56.712 21.687 L 56.712 21.687 Q 56.097 21.089 56.097 19.825 L 56.097 19.825 L 56.097 9.166 L 57.685 8.893 L 57.685 19.569 L 57.685 19.569 Q 57.685 19.962 57.754 20.218 L 57.754 20.218 L 57.754 20.218 Q 57.822 20.474 57.976 20.628 L 57.976 20.628 L 57.976 20.628 Q 58.129 20.782 58.386 20.858 L 58.386 20.858 L 58.386 20.858 Q 58.642 20.935 59.018 20.987 L 59.018 20.987 L 59.018 20.987 Z  M 60.299 17.724 L 60.299 17.724 L 60.299 17.724 Q 60.299 16.545 60.64 15.666 L 60.64 15.666 L 60.64 15.666 Q 60.982 14.786 61.546 14.205 L 61.546 14.205 L 61.546 14.205 Q 62.109 13.624 62.844 13.334 L 62.844 13.334 L 62.844 13.334 Q 63.578 13.043 64.347 13.043 L 64.347 13.043 L 64.347 13.043 Q 66.141 13.043 67.097 14.162 L 67.097 14.162 L 67.097 14.162 Q 68.054 15.281 68.054 17.57 L 68.054 17.57 L 68.054 17.57 Q 68.054 17.673 68.054 17.835 L 68.054 17.835 L 68.054 17.835 Q 68.054 17.997 68.037 18.134 L 68.037 18.134 L 61.956 18.134 L 61.956 18.134 Q 62.058 19.517 62.759 20.235 L 62.759 20.235 L 62.759 20.235 Q 63.459 20.952 64.945 20.952 L 64.945 20.952 L 64.945 20.952 Q 65.782 20.952 66.354 20.807 L 66.354 20.807 L 66.354 20.807 Q 66.927 20.662 67.217 20.525 L 67.217 20.525 L 67.439 21.858 L 67.439 21.858 Q 67.149 22.011 66.423 22.182 L 66.423 22.182 L 66.423 22.182 Q 65.697 22.353 64.774 22.353 L 64.774 22.353 L 64.774 22.353 Q 63.613 22.353 62.767 22.003 L 62.767 22.003 L 62.767 22.003 Q 61.922 21.653 61.375 21.038 L 61.375 21.038 L 61.375 21.038 Q 60.828 20.423 60.564 19.577 L 60.564 19.577 L 60.564 19.577 Q 60.299 18.732 60.299 17.724 Z  M 61.99 16.853 L 66.397 16.853 L 66.397 16.853 Q 66.414 15.777 65.859 15.085 L 65.859 15.085 L 65.859 15.085 Q 65.304 14.393 64.33 14.393 L 64.33 14.393 L 64.33 14.393 Q 63.783 14.393 63.365 14.606 L 63.365 14.606 L 63.365 14.606 Q 62.946 14.82 62.656 15.162 L 62.656 15.162 L 62.656 15.162 Q 62.366 15.503 62.203 15.947 L 62.203 15.947 L 62.203 15.947 Q 62.041 16.392 61.99 16.853 L 61.99 16.853 L 61.99 16.853 Z  M 73.623 13.078 L 73.623 13.078 L 73.623 13.078 Q 73.828 13.078 74.092 13.103 L 74.092 13.103 L 74.092 13.103 Q 74.357 13.129 74.613 13.172 L 74.613 13.172 L 74.613 13.172 Q 74.87 13.214 75.083 13.257 L 75.083 13.257 L 75.083 13.257 Q 75.297 13.3 75.399 13.334 L 75.399 13.334 L 75.126 14.718 L 75.126 14.718 Q 74.938 14.649 74.502 14.555 L 74.502 14.555 L 74.502 14.555 Q 74.067 14.461 73.383 14.461 L 73.383 14.461 L 73.383 14.461 Q 72.939 14.461 72.504 14.555 L 72.504 14.555 L 72.504 14.555 Q 72.068 14.649 71.931 14.683 L 71.931 14.683 L 71.931 22.148 L 70.343 22.148 L 70.343 13.641 L 70.343 13.641 Q 70.907 13.436 71.744 13.257 L 71.744 13.257 L 71.744 13.257 Q 72.581 13.078 73.623 13.078 Z  M 78.525 13.266 L 78.525 22.148 L 76.936 22.148 L 76.936 13.266 L 78.525 13.266 L 78.525 13.266 Z  M 77.722 11.66 L 77.722 11.66 L 77.722 11.66 Q 77.295 11.66 76.996 11.378 L 76.996 11.378 L 76.996 11.378 Q 76.697 11.096 76.697 10.618 L 76.697 10.618 L 76.697 10.618 Q 76.697 10.14 76.996 9.858 L 76.996 9.858 L 76.996 9.858 Q 77.295 9.576 77.722 9.576 L 77.722 9.576 L 77.722 9.576 Q 78.149 9.576 78.448 9.858 L 78.448 9.858 L 78.448 9.858 Q 78.747 10.14 78.747 10.618 L 78.747 10.618 L 78.747 10.618 Q 78.747 11.096 78.448 11.378 L 78.448 11.378 L 78.448 11.378 Q 78.149 11.66 77.722 11.66 Z " fill-rule="evenodd" fill="rgb(0,213,99)"/></g></g></svg>