<?xml version="1.0" standalone="no"?><!-- Generator: Gravit.io --><svg xmlns="http://www.w3.org/2000/svg" xmlns:xlink="http://www.w3.org/1999/xlink" style="isolation:isolate" viewBox="0 0 117 40" width="117" height="40"><defs><clipPath id="_clipPath_yKaoBJ2vqkYP5rqkQo0vOqEn8to6RUDI"><rect width="117" height="40"/></clipPath></defs><g clip-path="url(#_clipPath_yKaoBJ2vqkYP5rqkQo0vOqEn8to6RUDI)"><rect width="117" height="40" style="fill:rgb(21,114,232)" fill-opacity="0"/><path d=" M 49.641 13.942 L 54.753 26.956 L 52.881 26.956 L 52.881 26.956 Q 52.566 26.956 52.364 26.799 L 52.364 26.799 L 52.364 26.799 Q 52.161 26.641 52.071 26.407 L 52.071 26.407 L 51.099 23.752 L 45.708 23.752 L 44.736 26.407 L 44.736 26.407 Q 44.664 26.614 44.453 26.785 L 44.453 26.785 L 44.453 26.785 Q 44.241 26.956 43.935 26.956 L 43.935 26.956 L 42.054 26.956 L 47.166 13.942 L 49.641 13.942 L 49.641 13.942 Z  M 47.913 17.731 L 46.329 22.042 L 50.478 22.042 L 48.894 17.713 L 48.894 17.713 Q 48.786 17.425 48.656 17.034 L 48.656 17.034 L 48.656 17.034 Q 48.525 16.642 48.399 16.183 L 48.399 16.183 L 48.399 16.183 Q 48.273 16.642 48.152 17.038 L 48.152 17.038 L 48.152 17.038 Q 48.03 17.434 47.913 17.731 L 47.913 17.731 L 47.913 17.731 Z  M 60.001 27.1 L 60.001 27.1 L 60.001 27.1 Q 58.804 27.1 58.156 26.421 L 58.156 26.421 L 58.156 26.421 Q 57.508 25.741 57.508 24.544 L 57.508 24.544 L 57.508 19.387 L 56.572 19.387 L 56.572 19.387 Q 56.392 19.387 56.262 19.27 L 56.262 19.27 L 56.262 19.27 Q 56.131 19.153 56.131 18.919 L 56.131 18.919 L 56.131 18.037 L 57.616 17.794 L 58.084 15.274 L 58.084 15.274 Q 58.12 15.094 58.251 14.995 L 58.251 14.995 L 58.251 14.995 Q 58.381 14.896 58.579 14.896 L 58.579 14.896 L 59.731 14.896 L 59.731 17.803 L 62.161 17.803 L 62.161 19.387 L 59.731 19.387 L 59.731 24.391 L 59.731 24.391 Q 59.731 24.823 59.947 25.066 L 59.947 25.066 L 59.947 25.066 Q 60.163 25.309 60.523 25.309 L 60.523 25.309 L 60.523 25.309 Q 60.73 25.309 60.87 25.26 L 60.87 25.26 L 60.87 25.26 Q 61.009 25.21 61.113 25.156 L 61.113 25.156 L 61.113 25.156 Q 61.216 25.102 61.297 25.053 L 61.297 25.053 L 61.297 25.053 Q 61.378 25.003 61.459 25.003 L 61.459 25.003 L 61.459 25.003 Q 61.558 25.003 61.621 25.053 L 61.621 25.053 L 61.621 25.053 Q 61.684 25.102 61.756 25.201 L 61.756 25.201 L 62.422 26.281 L 62.422 26.281 Q 61.936 26.686 61.306 26.893 L 61.306 26.893 L 61.306 26.893 Q 60.676 27.1 60.001 27.1 Z  M 65.078 13.582 L 67.301 13.582 L 67.301 26.956 L 65.078 26.956 L 65.078 13.582 L 65.078 13.582 Z  M 78.048 21.124 L 78.048 26.956 L 77.049 26.956 L 77.049 26.956 Q 76.734 26.956 76.554 26.862 L 76.554 26.862 L 76.554 26.862 Q 76.374 26.767 76.284 26.479 L 76.284 26.479 L 76.086 25.822 L 76.086 25.822 Q 75.735 26.137 75.398 26.376 L 75.398 26.376 L 75.398 26.376 Q 75.06 26.614 74.7 26.776 L 74.7 26.776 L 74.7 26.776 Q 74.34 26.938 73.935 27.019 L 73.935 27.019 L 73.935 27.019 Q 73.53 27.1 73.035 27.1 L 73.035 27.1 L 73.035 27.1 Q 72.45 27.1 71.955 26.942 L 71.955 26.942 L 71.955 26.942 Q 71.46 26.784 71.105 26.468 L 71.105 26.468 L 71.105 26.468 Q 70.749 26.152 70.551 25.682 L 70.551 25.682 L 70.551 25.682 Q 70.353 25.213 70.353 24.59 L 70.353 24.59 L 70.353 24.59 Q 70.353 24.066 70.628 23.556 L 70.628 23.556 L 70.628 23.556 Q 70.902 23.046 71.541 22.635 L 71.541 22.635 L 71.541 22.635 Q 72.18 22.224 73.242 21.953 L 73.242 21.953 L 73.242 21.953 Q 74.304 21.682 75.879 21.682 L 75.879 21.682 L 75.879 21.138 L 75.879 21.138 Q 75.879 20.204 75.488 19.755 L 75.488 19.755 L 75.488 19.755 Q 75.096 19.306 74.349 19.306 L 74.349 19.306 L 74.349 19.306 Q 73.809 19.306 73.449 19.432 L 73.449 19.432 L 73.449 19.432 Q 73.089 19.558 72.824 19.716 L 72.824 19.716 L 72.824 19.716 Q 72.558 19.873 72.333 19.999 L 72.333 19.999 L 72.333 19.999 Q 72.108 20.125 71.838 20.125 L 71.838 20.125 L 71.838 20.125 Q 71.613 20.125 71.451 20.008 L 71.451 20.008 L 71.451 20.008 Q 71.289 19.891 71.19 19.72 L 71.19 19.72 L 70.785 19.009 L 70.785 19.009 Q 72.378 17.551 74.628 17.551 L 74.628 17.551 L 74.628 17.551 Q 75.438 17.551 76.073 17.817 L 76.073 17.817 L 76.073 17.817 Q 76.707 18.082 77.148 18.555 L 77.148 18.555 L 77.148 18.555 Q 77.589 19.027 77.819 19.684 L 77.819 19.684 L 77.819 19.684 Q 78.048 20.341 78.048 21.124 L 78.048 21.124 L 78.048 21.124 Z  M 73.728 25.57 L 73.728 25.57 L 73.728 25.57 Q 74.07 25.57 74.358 25.507 L 74.358 25.507 L 74.358 25.507 Q 74.646 25.444 74.903 25.319 L 74.903 25.319 L 74.903 25.319 Q 75.159 25.193 75.398 25.009 L 75.398 25.009 L 75.398 25.009 Q 75.636 24.824 75.879 24.573 L 75.879 24.573 L 75.879 23.041 L 75.879 23.041 Q 74.907 23.041 74.255 23.164 L 74.255 23.164 L 74.255 23.164 Q 73.602 23.286 73.206 23.476 L 73.206 23.476 L 73.206 23.476 Q 72.81 23.667 72.644 23.92 L 72.644 23.92 L 72.644 23.92 Q 72.477 24.174 72.477 24.473 L 72.477 24.473 L 72.477 24.473 Q 72.477 25.063 72.824 25.316 L 72.824 25.316 L 72.824 25.316 Q 73.17 25.57 73.728 25.57 Z  M 83.458 26.956 L 81.235 26.956 L 81.235 17.722 L 82.594 17.722 L 82.594 17.722 Q 83.026 17.722 83.161 18.127 L 83.161 18.127 L 83.314 18.856 L 83.314 18.856 Q 83.593 18.568 83.904 18.334 L 83.904 18.334 L 83.904 18.334 Q 84.214 18.1 84.561 17.929 L 84.561 17.929 L 84.561 17.929 Q 84.907 17.758 85.303 17.668 L 85.303 17.668 L 85.303 17.668 Q 85.699 17.578 86.167 17.578 L 86.167 17.578 L 86.167 17.578 Q 86.923 17.578 87.508 17.835 L 87.508 17.835 L 87.508 17.835 Q 88.093 18.091 88.485 18.555 L 88.485 18.555 L 88.485 18.555 Q 88.876 19.018 89.079 19.662 L 89.079 19.662 L 89.079 19.662 Q 89.281 20.305 89.281 21.079 L 89.281 21.079 L 89.281 26.956 L 87.058 26.956 L 87.058 21.079 L 87.058 21.079 Q 87.058 20.233 86.667 19.77 L 86.667 19.77 L 86.667 19.77 Q 86.275 19.306 85.492 19.306 L 85.492 19.306 L 85.492 19.306 Q 84.916 19.306 84.412 19.567 L 84.412 19.567 L 84.412 19.567 Q 83.908 19.828 83.458 20.278 L 83.458 20.278 L 83.458 26.956 L 83.458 26.956 Z  M 95.501 27.1 L 95.501 27.1 L 95.501 27.1 Q 94.304 27.1 93.656 26.421 L 93.656 26.421 L 93.656 26.421 Q 93.008 25.741 93.008 24.544 L 93.008 24.544 L 93.008 19.387 L 92.072 19.387 L 92.072 19.387 Q 91.892 19.387 91.762 19.27 L 91.762 19.27 L 91.762 19.27 Q 91.631 19.153 91.631 18.919 L 91.631 18.919 L 91.631 18.037 L 93.116 17.794 L 93.584 15.274 L 93.584 15.274 Q 93.62 15.094 93.751 14.995 L 93.751 14.995 L 93.751 14.995 Q 93.881 14.896 94.079 14.896 L 94.079 14.896 L 95.231 14.896 L 95.231 17.803 L 97.661 17.803 L 97.661 19.387 L 95.231 19.387 L 95.231 24.391 L 95.231 24.391 Q 95.231 24.823 95.447 25.066 L 95.447 25.066 L 95.447 25.066 Q 95.663 25.309 96.023 25.309 L 96.023 25.309 L 96.023 25.309 Q 96.23 25.309 96.37 25.26 L 96.37 25.26 L 96.37 25.26 Q 96.509 25.21 96.613 25.156 L 96.613 25.156 L 96.613 25.156 Q 96.716 25.102 96.797 25.053 L 96.797 25.053 L 96.797 25.053 Q 96.878 25.003 96.959 25.003 L 96.959 25.003 L 96.959 25.003 Q 97.058 25.003 97.121 25.053 L 97.121 25.053 L 97.121 25.053 Q 97.184 25.102 97.256 25.201 L 97.256 25.201 L 97.922 26.281 L 97.922 26.281 Q 97.436 26.686 96.806 26.893 L 96.806 26.893 L 96.806 26.893 Q 96.176 27.1 95.501 27.1 Z  M 100.578 17.722 L 102.801 17.722 L 102.801 26.956 L 100.578 26.956 L 100.578 17.722 L 100.578 17.722 Z  M 103.134 15.031 L 103.134 15.031 L 103.134 15.031 Q 103.134 15.319 103.017 15.571 L 103.017 15.571 L 103.017 15.571 Q 102.9 15.823 102.707 16.012 L 102.707 16.012 L 102.707 16.012 Q 102.513 16.201 102.252 16.314 L 102.252 16.314 L 102.252 16.314 Q 101.991 16.426 101.694 16.426 L 101.694 16.426 L 101.694 16.426 Q 101.406 16.426 101.15 16.314 L 101.15 16.314 L 101.15 16.314 Q 100.893 16.201 100.704 16.012 L 100.704 16.012 L 100.704 16.012 Q 100.515 15.823 100.403 15.571 L 100.403 15.571 L 100.403 15.571 Q 100.29 15.319 100.29 15.031 L 100.29 15.031 L 100.29 15.031 Q 100.29 14.734 100.403 14.473 L 100.403 14.473 L 100.403 14.473 Q 100.515 14.212 100.704 14.023 L 100.704 14.023 L 100.704 14.023 Q 100.893 13.834 101.15 13.722 L 101.15 13.722 L 101.15 13.722 Q 101.406 13.609 101.694 13.609 L 101.694 13.609 L 101.694 13.609 Q 101.991 13.609 102.252 13.722 L 102.252 13.722 L 102.252 13.722 Q 102.513 13.834 102.707 14.023 L 102.707 14.023 L 102.707 14.023 Q 102.9 14.212 103.017 14.473 L 103.017 14.473 L 103.017 14.473 Q 103.134 14.734 103.134 15.031 Z  M 112.297 18.721 L 111.793 19.522 L 111.793 19.522 Q 111.703 19.666 111.604 19.725 L 111.604 19.725 L 111.604 19.725 Q 111.505 19.783 111.352 19.783 L 111.352 19.783 L 111.352 19.783 Q 111.19 19.783 111.006 19.693 L 111.006 19.693 L 111.006 19.693 Q 110.821 19.603 110.578 19.491 L 110.578 19.491 L 110.578 19.491 Q 110.335 19.378 110.025 19.288 L 110.025 19.288 L 110.025 19.288 Q 109.714 19.198 109.291 19.198 L 109.291 19.198 L 109.291 19.198 Q 108.634 19.198 108.256 19.477 L 108.256 19.477 L 108.256 19.477 Q 107.878 19.756 107.878 20.206 L 107.878 20.206 L 107.878 20.206 Q 107.878 20.503 108.072 20.706 L 108.072 20.706 L 108.072 20.706 Q 108.265 20.908 108.585 21.061 L 108.585 21.061 L 108.585 21.061 Q 108.904 21.214 109.309 21.336 L 109.309 21.336 L 109.309 21.336 Q 109.714 21.457 110.137 21.601 L 110.137 21.601 L 110.137 21.601 Q 110.56 21.745 110.965 21.93 L 110.965 21.93 L 110.965 21.93 Q 111.37 22.114 111.69 22.398 L 111.69 22.398 L 111.69 22.398 Q 112.009 22.681 112.203 23.077 L 112.203 23.077 L 112.203 23.077 Q 112.396 23.473 112.396 24.031 L 112.396 24.031 L 112.396 24.031 Q 112.396 24.697 112.153 25.26 L 112.153 25.26 L 112.153 25.26 Q 111.91 25.822 111.442 26.232 L 111.442 26.232 L 111.442 26.232 Q 110.974 26.641 110.286 26.871 L 110.286 26.871 L 110.286 26.871 Q 109.597 27.1 108.706 27.1 L 108.706 27.1 L 108.706 27.1 Q 108.229 27.1 107.775 27.015 L 107.775 27.015 L 107.775 27.015 Q 107.32 26.929 106.902 26.776 L 106.902 26.776 L 106.902 26.776 Q 106.483 26.623 106.128 26.416 L 106.128 26.416 L 106.128 26.416 Q 105.772 26.209 105.502 25.966 L 105.502 25.966 L 106.015 25.12 L 106.015 25.12 Q 106.114 24.967 106.249 24.886 L 106.249 24.886 L 106.249 24.886 Q 106.384 24.805 106.591 24.805 L 106.591 24.805 L 106.591 24.805 Q 106.798 24.805 106.983 24.922 L 106.983 24.922 L 106.983 24.922 Q 107.167 25.039 107.41 25.174 L 107.41 25.174 L 107.41 25.174 Q 107.653 25.309 107.982 25.426 L 107.982 25.426 L 107.982 25.426 Q 108.31 25.543 108.814 25.543 L 108.814 25.543 L 108.814 25.543 Q 109.21 25.543 109.494 25.449 L 109.494 25.449 L 109.494 25.449 Q 109.777 25.354 109.962 25.201 L 109.962 25.201 L 109.962 25.201 Q 110.146 25.048 110.232 24.846 L 110.232 24.846 L 110.232 24.846 Q 110.317 24.643 110.317 24.427 L 110.317 24.427 L 110.317 24.427 Q 110.317 24.103 110.124 23.896 L 110.124 23.896 L 110.124 23.896 Q 109.93 23.689 109.611 23.536 L 109.611 23.536 L 109.611 23.536 Q 109.291 23.383 108.882 23.262 L 108.882 23.262 L 108.882 23.262 Q 108.472 23.14 108.045 22.996 L 108.045 22.996 L 108.045 22.996 Q 107.617 22.852 107.208 22.659 L 107.208 22.659 L 107.208 22.659 Q 106.798 22.465 106.479 22.168 L 106.479 22.168 L 106.479 22.168 Q 106.159 21.871 105.966 21.439 L 105.966 21.439 L 105.966 21.439 Q 105.772 21.007 105.772 20.395 L 105.772 20.395 L 105.772 20.395 Q 105.772 19.828 105.997 19.315 L 105.997 19.315 L 105.997 19.315 Q 106.222 18.802 106.659 18.42 L 106.659 18.42 L 106.659 18.42 Q 107.095 18.037 107.748 17.808 L 107.748 17.808 L 107.748 17.808 Q 108.4 17.578 109.255 17.578 L 109.255 17.578 L 109.255 17.578 Q 110.209 17.578 110.992 17.893 L 110.992 17.893 L 110.992 17.893 Q 111.775 18.208 112.297 18.721 L 112.297 18.721 L 112.297 18.721 Z " fill-rule="evenodd" fill="rgb(255,255,255)"/><g><path d=" M 1 10.482 L 17.469 0.973 L 33.939 10.482 L 33.939 29.499 L 17.469 39.007 L 1 29.499 L 1 10.482 Z " fill="rgb(255,255,255)"/><path d=" M 5.117 12.859 L 17.469 5.727 L 29.821 12.859 L 29.821 27.122 L 25.704 29.499 L 25.704 15.236 L 17.469 10.482 L 9.235 15.236 L 9.235 29.499 L 5.117 27.122 L 5.117 12.859 Z " fill="rgb(21,114,232)"/><path d=" M 17.469 15.236 L 21.587 17.613 L 21.587 22.367 L 17.469 24.744 L 13.352 22.367 L 13.352 17.613 L 17.469 15.236 Z " fill="rgb(21,114,232)"/><path d=" M 13.352 27.122 L 17.469 29.499 L 21.587 27.122 L 21.587 31.876 L 17.469 34.253 L 13.352 31.876 L 13.352 27.122 Z " fill="rgb(21,114,232)"/></g></g></svg>