<?xml version="1.0" standalone="no"?><!-- Generator: Gravit.io --><svg xmlns="http://www.w3.org/2000/svg" xmlns:xlink="http://www.w3.org/1999/xlink" style="isolation:isolate" viewBox="0 0 50 50" width="50" height="50"><defs><clipPath id="_clipPath_o3aBqof8vsvk6LT2t5bnm7wlF18X6mtg"><rect width="50" height="50"/></clipPath></defs><g clip-path="url(#_clipPath_o3aBqof8vsvk6LT2t5bnm7wlF18X6mtg)"><g id="g2990"><path d=" M 45 25 C 45 36.046 36.046 45 25 45 C 13.954 45 5 36.046 5 25 C 5 13.954 13.954 5 25 5 C 36.046 5 45 13.954 45 25 Z " fill="rgb(55,154,214)"/><g id="g3015"><path d=" M 31.982 35.158 L 33.594 17.702 L 16.406 17.702 L 18.017 35.158 L 25 37.038 L 31.982 35.158 Z " fill-rule="evenodd" fill="rgb(255,255,255)"/><path d=" M 30.666 34.021 L 31.97 19.116 L 25 19.116 L 25 35.539 L 25.016 35.543 L 30.666 34.021 Z " fill-rule="evenodd" fill="rgb(255,255,255)"/><path d=" M 19.9 16.175 L 22.553 16.175 L 22.553 15.138 L 21.037 15.138 L 21.037 14.099 L 22.553 14.099 L 22.553 12.962 L 19.9 12.962 L 19.9 16.175 Z  M 23.687 14.099 C 24.042 14.454 24.227 14.623 24.74 15.137 C 24.44 15.137 23.687 15.138 23.687 15.138 L 23.687 16.175 L 26.34 16.175 L 26.34 15.138 L 25.28 14.099 L 26.34 14.099 L 26.34 12.962 L 23.687 12.962 C 23.687 12.962 23.687 13.532 23.687 14.099 Z  M 30.1 12.962 L 27.447 12.962 C 27.447 12.962 27.447 13.532 27.447 14.099 C 27.802 14.454 27.987 14.623 28.5 15.137 C 28.2 15.137 27.447 15.138 27.447 15.138 L 27.447 16.175 L 30.1 16.175 L 30.1 15.138 L 29.04 14.099 L 30.1 14.099 L 30.1 12.962 L 30.1 12.962 Z " fill-rule="evenodd" fill="rgb(255,255,255)"/><path d=" M 19.539 21.226 L 19.852 23.355 L 25.281 23.316 L 20.047 25.523 L 20.184 27.632 L 27.606 27.632 L 27.43 30.406 L 25.047 31.128 L 22.625 30.464 L 22.488 28.804 L 20.36 28.804 L 20.633 32.066 L 24.988 33.335 L 29.422 32.105 L 29.969 25.523 L 24.949 25.523 L 30.164 23.316 L 30.32 21.207 L 19.539 21.226 Z " fill="rgb(55,154,214)"/></g></g></g></svg>