<?xml version="1.0" standalone="no"?><!-- Generator: Gravit.io --><svg xmlns="http://www.w3.org/2000/svg" xmlns:xlink="http://www.w3.org/1999/xlink" style="isolation:isolate" viewBox="0 0 1000.046 323.653" width="1000.046" height="323.653"><defs><clipPath id="_clipPath_gihWMRSSXcwWpQ43dzSu7zhoqGFRKn4Z"><rect width="1000.046" height="323.653"/></clipPath></defs><g clip-path="url(#_clipPath_gihWMRSSXcwWpQ43dzSu7zhoqGFRKn4Z)"><path d=" M 433.352 318.984 L 352.342 318.984 L 403.011 5.679 L 484.018 5.679 L 433.352 318.984 Z " fill="rgb(255,255,255)"/><path d=" M 727.023 13.339 C 711.045 6.999 685.701 0 654.363 0 C 574.362 0 518.027 42.66 517.681 103.652 C 517.017 148.652 558.016 173.646 588.68 188.65 C 620.022 203.982 630.676 213.989 630.676 227.656 C 630.357 248.645 605.35 258.32 582.026 258.32 C 549.683 258.32 532.353 253.332 506.017 241.654 L 495.35 236.649 L 484.013 306.979 C 503.013 315.635 538.019 323.316 574.362 323.653 C 659.365 323.653 714.704 281.653 715.359 216.656 C 715.683 180.99 694.033 153.662 647.359 131.331 C 619.025 116.995 601.673 107.329 601.673 92.661 C 602.005 79.327 616.35 65.67 648.334 65.67 C 674.67 65.001 694.02 71.331 708.679 77.666 L 716.006 80.993 L 727.023 13.339 L 727.023 13.339 L 727.023 13.339 Z " fill="rgb(255,255,255)"/><path d=" M 834.694 207.991 C 841.365 189.992 867.037 120.331 867.037 120.331 C 866.7 121 873.695 102 877.695 90.336 L 883.357 117.332 C 883.357 117.332 898.698 192.327 902.029 207.991 C 889.368 207.991 850.695 207.991 834.694 207.991 L 834.694 207.991 Z  M 934.691 5.679 L 872.029 5.679 C 852.706 5.679 838.025 11.341 829.688 31.674 L 709.357 318.979 L 794.359 318.979 C 794.359 318.979 808.353 280.31 811.361 271.982 C 820.686 271.982 903.376 271.982 915.372 271.982 C 917.698 282.982 925.038 318.979 925.038 318.979 L 1000.046 318.979 L 934.691 5.679 L 934.691 5.679 L 934.691 5.679 Z " fill="rgb(255,255,255)"/><path d=" M 284.678 5.679 L 205.342 219.323 L 196.673 175.993 C 182.005 125.997 136.004 71.677 84.67 44.667 L 157.339 318.652 L 243.006 318.652 L 370.34 5.679 L 284.678 5.679 L 284.678 5.679 L 284.678 5.679 Z " fill="rgb(255,255,255)"/><path d=" M 131.672 5.679 L 1.333 5.679 L 0 12.01 C 101.672 38.009 169.008 100.68 196.673 176.007 L 168.339 32.015 C 163.674 12.005 149.338 6.339 131.672 5.679 L 131.672 5.679 Z " fill="rgb(255,255,255)"/></g></svg>